<svg width="265" height="61" viewBox="0 0 265 61" fill="none" xmlns="http://www.w3.org/2000/svg">
<path d="M14.65 48.6C11.8833 48.6 9.23333 48.2333 6.7 47.5C4.16667 46.7667 2.13333 45.8333 0.6 44.7L3.9 38.45C5.5 39.6167 7.3 40.5167 9.3 41.15C11.3 41.7833 13.35 42.1 15.45 42.1C17.6833 42.1 19.45 41.7333 20.75 41C22.05 40.2667 22.7 39.2667 22.7 38C22.7 36.9667 22.1833 36.1833 21.15 35.65C20.1167 35.0833 18.4667 34.4833 16.2 33.85C13.9333 33.1833 12.0833 32.55 10.65 31.95C9.21667 31.3167 7.96667 30.3833 6.9 29.15C5.86667 27.9167 5.35 26.2833 5.35 24.25C5.35 21.8833 6 19.8 7.3 18C8.63333 16.2 10.5 14.8167 12.9 13.85C15.3333 12.8833 18.15 12.4 21.35 12.4C23.7167 12.4 25.95 12.6667 28.05 13.2C30.15 13.7 31.95 14.4333 33.45 15.4L30.4 21.6C29.1 20.7 27.6333 20.0333 26 19.6C24.3667 19.1333 22.6667 18.9 20.9 18.9C18.6 18.9 16.7833 19.3 15.45 20.1C14.1167 20.9 13.45 21.9333 13.45 23.2C13.45 23.9667 13.7333 24.6167 14.3 25.15C14.8667 25.65 15.5833 26.0667 16.45 26.4C17.3167 26.7 18.5333 27.0667 20.1 27.5C22.3333 28.1 24.1667 28.7167 25.6 29.35C27.0333 29.95 28.25 30.85 29.25 32.05C30.2833 33.2167 30.8 34.7667 30.8 36.7C30.8 39.1 30.1333 41.2 28.8 43C27.4667 44.7667 25.5833 46.15 23.15 47.15C20.7167 48.1167 17.8833 48.6 14.65 48.6ZM55.7348 29.2L67.8848 48H58.7848L49.7848 34.3L44.1348 39.3L42.3848 48H34.3348L41.3348 13H49.3848L46.1848 29.05L64.3348 13H74.1348L55.7348 29.2ZM78.3465 13H86.4965L79.4965 48H71.3465L78.3465 13ZM94.7527 13H102.903L97.2027 41.4H114.753L113.403 48H87.7527L94.7527 13ZM124.929 13H133.079L127.379 41.4H144.929L143.579 48H117.929L124.929 13ZM169.254 13C173.621 13 176.988 13.9667 179.354 15.9C181.754 17.8 182.954 20.4667 182.954 23.9C182.954 26.8333 182.254 29.4 180.854 31.6C179.488 33.7667 177.521 35.4333 174.954 36.6C172.421 37.7667 169.421 38.35 165.954 38.35H158.154L156.254 48H148.104L155.104 13H169.254ZM166.304 31.75C169.004 31.75 171.088 31.1333 172.554 29.9C174.021 28.6667 174.754 26.9 174.754 24.6C174.754 22.9333 174.188 21.6833 173.054 20.85C171.954 20.0167 170.354 19.6 168.254 19.6H161.904L159.454 31.75H166.304ZM207.379 40.5H191.079L186.529 48H177.879L200.529 13H208.529L217.129 48H209.029L207.379 40.5ZM206.029 34.35L203.079 20.85L194.829 34.35H206.029ZM227.761 13H242.411C245.977 13 249.044 13.6 251.611 14.8C254.211 15.9667 256.194 17.65 257.561 19.85C258.961 22.05 259.661 24.6333 259.661 27.6C259.661 31.6667 258.744 35.25 256.911 38.35C255.077 41.4167 252.511 43.8 249.211 45.5C245.944 47.1667 242.161 48 237.861 48H220.761L227.761 13ZM238.111 41.35C240.844 41.35 243.211 40.7833 245.211 39.65C247.244 38.4833 248.794 36.9 249.861 34.9C250.927 32.8667 251.461 30.5833 251.461 28.05C251.461 25.4167 250.611 23.3667 248.911 21.9C247.211 20.4 244.744 19.65 241.511 19.65H234.561L230.211 41.35H238.111Z" fill="#F55139"/>
<path d="M16.65 48.6C13.8833 48.6 11.2 48.2333 8.6 47.5C6.03333 46.7333 3.96667 45.75 2.4 44.55L5.15 38.45C6.65 39.55 8.43333 40.4333 10.5 41.1C12.5667 41.7667 14.6333 42.1 16.7 42.1C19 42.1 20.7 41.7667 21.8 41.1C22.9 40.4 23.45 39.4833 23.45 38.35C23.45 37.5167 23.1167 36.8333 22.45 36.3C21.8167 35.7333 20.9833 35.2833 19.95 34.95C18.95 34.6167 17.5833 34.25 15.85 33.85C13.1833 33.2167 11 32.5833 9.3 31.95C7.6 31.3167 6.13333 30.3 4.9 28.9C3.7 27.5 3.1 25.6333 3.1 23.3C3.1 21.2667 3.65 19.4333 4.75 17.8C5.85 16.1333 7.5 14.8167 9.7 13.85C11.9333 12.8833 14.65 12.4 17.85 12.4C20.0833 12.4 22.2667 12.6667 24.4 13.2C26.5333 13.7333 28.4 14.5 30 15.5L27.5 21.65C24.2667 19.8167 21.0333 18.9 17.8 18.9C15.5333 18.9 13.85 19.2667 12.75 20C11.6833 20.7333 11.15 21.7 11.15 22.9C11.15 24.1 11.7667 25 13 25.6C14.2667 26.1667 16.1833 26.7333 18.75 27.3C21.4167 27.9333 23.6 28.5667 25.3 29.2C27 29.8333 28.45 30.8333 29.65 32.2C30.8833 33.5667 31.5 35.4167 31.5 37.75C31.5 39.75 30.9333 41.5833 29.8 43.25C28.7 44.8833 27.0333 46.1833 24.8 47.15C22.5667 48.1167 19.85 48.6 16.65 48.6ZM49.7848 34.25L45.0848 39.15V48H37.0348V13H45.0848V29.35L60.5848 13H69.5848L55.0848 28.6L70.4348 48H60.9848L49.7848 34.25ZM74.0465 13H82.1465V48H74.0465V13ZM90.4527 13H98.5527V41.4H116.103V48H90.4527V13ZM120.629 13H128.729V41.4H146.279V48H120.629V13ZM165.954 13C169.054 13 171.738 13.5167 174.004 14.55C176.304 15.5833 178.071 17.05 179.304 18.95C180.538 20.85 181.154 23.1 181.154 25.7C181.154 28.2667 180.538 30.5167 179.304 32.45C178.071 34.35 176.304 35.8167 174.004 36.85C171.738 37.85 169.054 38.35 165.954 38.35H158.904V48H150.804V13H165.954ZM165.504 31.75C167.938 31.75 169.788 31.2333 171.054 30.2C172.321 29.1333 172.954 27.6333 172.954 25.7C172.954 23.7333 172.321 22.2333 171.054 21.2C169.788 20.1333 167.938 19.6 165.504 19.6H158.904V31.75H165.504ZM208.229 40.5H191.979L188.879 48H180.579L196.179 13H204.179L219.829 48H211.329L208.229 40.5ZM205.679 34.35L200.129 20.95L194.579 34.35H205.679ZM223.461 13H239.361C243.161 13 246.511 13.7333 249.411 15.2C252.344 16.6333 254.611 18.6667 256.211 21.3C257.844 23.9333 258.661 27 258.661 30.5C258.661 34 257.844 37.0667 256.211 39.7C254.611 42.3333 252.344 44.3833 249.411 45.85C246.511 47.2833 243.161 48 239.361 48H223.461V13ZM238.961 41.35C242.461 41.35 245.244 40.3833 247.311 38.45C249.411 36.4833 250.461 33.8333 250.461 30.5C250.461 27.1667 249.411 24.5333 247.311 22.6C245.244 20.6333 242.461 19.65 238.961 19.65H231.561V41.35H238.961Z" fill="black"/>
</svg>
